<svg xmlns="http://www.w3.org/2000/svg" viewBox="0 0 24 24" fill="currentColor"><path d="M12 2a10 10 0 100 20 10 10 0 000-20zm-1 18a8 8 0 01-6.3-4H7a8 8 0 004 4zm-6.7-6c-.2-.6-.3-1.3-.3-2s.1-1.4.3-2H7c-.1.7-.1 1.3-.1 2s0 1.3.1 2H4.3zm.4-6h2.3a13 13 0 011-3 8 8 0 00-3.3 3zM12 4c.8 1 1.5 2 2 4h-4c.5-2 1.2-3 2-4zm5.3 4a13 13 0 00-1-3 8 8 0 013.3 3h-2.3zM20 12c0 .7-.1 1.4-.3 2H17c.1-.7.1-1.3.1-2s0-1.3-.1-2h2.7c.2.6.3 1.3.3 2zM9 12c0-.7 0-1.3.1-2h5.8c.1.7.1 1.3.1 2s0 1.3-.1 2H9.1c-.1-.7-.1-1.3-.1-2zm3 8c-.8-1-1.5-2-2-4h4c-.5 2-1.2 3-2 4zm5.3-2a8 8 0 01-3.3 3 13 13 0 001-3h2.3z"/></svg>
